<?xml version="1.0" encoding="UTF-8" standalone="no"?>
<!-- Created with Inkscape (http://www.inkscape.org/) -->

<svg
   xmlns:dc="http://purl.org/dc/elements/1.1/"
   xmlns:cc="http://creativecommons.org/ns#"
   xmlns:rdf="http://www.w3.org/1999/02/22-rdf-syntax-ns#"
   xmlns:svg="http://www.w3.org/2000/svg"
   xmlns="http://www.w3.org/2000/svg"
   xmlns:xlink="http://www.w3.org/1999/xlink"
   xmlns:sodipodi="http://sodipodi.sourceforge.net/DTD/sodipodi-0.dtd"
   xmlns:inkscape="http://www.inkscape.org/namespaces/inkscape"
   width="400"
   height="300"
   id="svg2"
   version="1.1"
   inkscape:version="0.92.2 5c3e80d, 2017-08-06"
   sodipodi:docname="lynXified-amirouche-v3.svg"
   inkscape:export-filename="lynXified-amirouche-anonymous-v3.png"
   inkscape:export-xdpi="192"
   inkscape:export-ydpi="192">
  <title
     id="title3310">Guix System Distribution (Logo)</title>
  <defs
     id="defs4">
    <linearGradient
       id="gnunet">
      <stop
         id="stop9516"
         offset="0"
         style="stop-color:#ff0000;stop-opacity:0.58431375;" />
      <stop
         id="stop9518"
         offset="1"
         style="stop-color:#ffcc00;stop-opacity:1;" />
    </linearGradient>
    <inkscape:path-effect
       effect="vonkoch"
       id="path-effect8912"
       is_visible="true"
       ref_path="m 386.97986,1494.3277 h 79.02013"
       generator="m 386.97986,1552.8408 h 26.34004 m 26.34005,0 h 26.34004"
       similar_only="false"
       nbgenerations="1"
       drawall="true"
       maxComplexity="1000" />
    <linearGradient
       id="linearGradient4094">
      <stop
         id="stop4096"
         offset="0"
         style="stop-color:#232323;stop-opacity:1;" />
      <stop
         id="stop4098"
         offset="1"
         style="stop-color:#4d4d4d;stop-opacity:1;" />
    </linearGradient>
    <linearGradient
       id="linearGradient4014">
      <stop
         id="stop4016"
         offset="0"
         style="stop-color:#a0a0a0;stop-opacity:1;" />
      <stop
         id="stop4018"
         offset="1"
         style="stop-color:#ffffff;stop-opacity:1;" />
    </linearGradient>
    <linearGradient
       id="linearGradient4678">
      <stop
         id="stop4680"
         offset="0"
         style="stop-color:#e5e5e5;stop-opacity:1;" />
      <stop
         id="stop4682"
         offset="1"
         style="stop-color:#d3cdcd;stop-opacity:1;" />
    </linearGradient>
    <linearGradient
       id="linearGradient4341">
      <stop
         style="stop-color:#333333;stop-opacity:1;"
         offset="0"
         id="stop4343" />
      <stop
         style="stop-color:#484848;stop-opacity:1;"
         offset="1"
         id="stop4345" />
    </linearGradient>
    <linearGradient
       id="linearGradient4696-5">
      <stop
         style="stop-color:#ffb638;stop-opacity:1;"
         offset="0"
         id="stop4698-6" />
      <stop
         style="stop-color:#f0ae26;stop-opacity:1;"
         offset="1"
         id="stop4700-2" />
    </linearGradient>
    <linearGradient
       id="linearGradient4702-3-6">
      <stop
         style="stop-color:#ff0000;stop-opacity:0.58431375;"
         offset="0"
         id="stop4704-1" />
      <stop
         style="stop-color:#ffcc00;stop-opacity:1;"
         offset="1"
         id="stop4706-8" />
    </linearGradient>
    <color-profile
       id="color-profile26"
       xlink:href="/usr/share/color/icc/ghostscript/ps_cmyk.icc"
       name="Artifex-PS-CMYK-Profile" />
    <linearGradient
       inkscape:collect="always"
       xlink:href="#linearGradient4702-3-6"
       id="linearGradient3138"
       gradientUnits="userSpaceOnUse"
       gradientTransform="matrix(-0.88803314,0,0,0.88803314,595.57001,1106.9291)"
       x1="142.96875"
       y1="63.65625"
       x2="177.04297"
       y2="69.791016" />
    <linearGradient
       inkscape:collect="always"
       xlink:href="#linearGradient4696-5"
       id="linearGradient3141"
       gradientUnits="userSpaceOnUse"
       gradientTransform="matrix(-0.49726789,0,0,0.49726789,555.31016,722.70088)"
       x1="108.08774"
       y1="1025.709"
       x2="80.655251"
       y2="1043.709" />
    <linearGradient
       inkscape:collect="always"
       xlink:href="#linearGradient4702-3-6"
       id="linearGradient3144"
       gradientUnits="userSpaceOnUse"
       gradientTransform="matrix(0.88803314,0,0,0.88803314,415.18739,350.00262)"
       x1="113.5146"
       y1="1004.8033"
       x2="78.000107"
       y2="922.07178" />
    <linearGradient
       inkscape:collect="always"
       xlink:href="#linearGradient4702-3-6"
       id="linearGradient3148"
       gradientUnits="userSpaceOnUse"
       gradientTransform="matrix(0.88803314,0,0,0.88803314,415.2161,1106.9294)"
       x1="142.96875"
       y1="63.65625"
       x2="176.60477"
       y2="70.667412" />
    <linearGradient
       inkscape:collect="always"
       xlink:href="#linearGradient4702-3-6"
       id="linearGradient3780"
       gradientUnits="userSpaceOnUse"
       gradientTransform="matrix(0.88803314,0,0,0.88803314,415.2161,1106.9294)"
       x1="142.96875"
       y1="63.65625"
       x2="176.60477"
       y2="70.667412" />
    <linearGradient
       inkscape:collect="always"
       xlink:href="#linearGradient4702-3-6"
       id="linearGradient3782"
       gradientUnits="userSpaceOnUse"
       gradientTransform="matrix(0.88803314,0,0,0.88803314,415.18739,350.00262)"
       x1="113.5146"
       y1="1004.8033"
       x2="78.000107"
       y2="922.07178" />
    <linearGradient
       inkscape:collect="always"
       xlink:href="#linearGradient4696-5"
       id="linearGradient3784"
       gradientUnits="userSpaceOnUse"
       gradientTransform="matrix(-0.49726789,0,0,0.49726789,555.31016,722.70088)"
       x1="108.08774"
       y1="1025.709"
       x2="80.655251"
       y2="1043.709" />
    <linearGradient
       inkscape:collect="always"
       xlink:href="#linearGradient4702-3-6"
       id="linearGradient3786"
       gradientUnits="userSpaceOnUse"
       gradientTransform="matrix(-0.88803314,0,0,0.88803314,595.57001,1106.9291)"
       x1="142.96875"
       y1="63.65625"
       x2="177.04297"
       y2="69.791016" />
    <filter
       style="color-interpolation-filters:sRGB"
       inkscape:label="Cross Blur"
       id="filter9204">
      <feColorMatrix
         in="SourceGraphic"
         values="1 0 0 0 0 0 1 0 0 0 0 0 1 0 0 -0.2125 -0.7154 -0.0721 1 0 "
         result="colormatrix"
         id="feColorMatrix9194" />
      <feComposite
         in="SourceGraphic"
         in2="colormatrix"
         operator="arithmetic"
         k2="1"
         k3="0"
         k4="0"
         result="composite"
         id="feComposite9196"
         k1="0" />
      <feGaussianBlur
         stdDeviation="5 0.01"
         result="blur1"
         id="feGaussianBlur9198" />
      <feGaussianBlur
         in="composite"
         stdDeviation="0.01 5"
         result="blur2"
         id="feGaussianBlur9200" />
      <feBlend
         in="blur2"
         in2="blur1"
         mode="darken"
         result="blend"
         id="feBlend9202" />
    </filter>
    <filter
       style="color-interpolation-filters:sRGB"
       inkscape:label="Blur"
       id="filter9330">
      <feGaussianBlur
         stdDeviation="2 2"
         result="blur"
         id="feGaussianBlur9328" />
    </filter>
  </defs>
  <sodipodi:namedview
     id="base"
     pagecolor="#ffffff"
     bordercolor="#e73520"
     borderopacity="1"
     inkscape:pageopacity="0.0"
     inkscape:pageshadow="2"
     inkscape:zoom="2"
     inkscape:cx="185.65271"
     inkscape:cy="142.71577"
     inkscape:document-units="px"
     inkscape:current-layer="g950"
     showgrid="true"
     inkscape:window-width="1600"
     inkscape:window-height="835"
     inkscape:window-x="0"
     inkscape:window-y="0"
     inkscape:window-maximized="1"
     inkscape:showpageshadow="false"
     showborder="true"
     borderlayer="true"
     inkscape:object-nodes="true"
     inkscape:snap-global="true"
     showguides="true"
     inkscape:guide-bbox="true"
     objecttolerance="20"
     inkscape:snap-tangential="true"
     inkscape:snap-perpendicular="true"
     inkscape:pagecheckerboard="true"
     fit-margin-top="10"
     fit-margin-left="10"
     fit-margin-right="10"
     fit-margin-bottom="10"
     inkscape:snap-path-clip="true"
     inkscape:snap-path-mask="true">
    <sodipodi:guide
       position="-307.43549,820.27825"
       orientation="1,0"
       id="guide5092"
       inkscape:locked="false" />
    <inkscape:grid
       type="xygrid"
       id="grid8783"
       originx="0"
       originy="0"
       spacingx="5"
       spacingy="5" />
    <sodipodi:guide
       position="-280.81043,809.79316"
       orientation="0,1"
       id="guide8844"
       inkscape:locked="false" />
    <sodipodi:guide
       position="-297.44255,799.75126"
       orientation="1,0"
       id="guide8846"
       inkscape:locked="false" />
    <sodipodi:guide
       position="-286.44639,799.75126"
       orientation="0,1"
       id="guide8864"
       inkscape:locked="false" />
    <sodipodi:guide
       position="-227.46698,708.44981"
       orientation="1,0"
       id="guide8874"
       inkscape:locked="false" />
    <sodipodi:guide
       position="-217.47047,677.79384"
       orientation="1,0"
       id="guide8876"
       inkscape:locked="false" />
    <sodipodi:guide
       position="-219.46978,729.7757"
       orientation="0,1"
       id="guide8878"
       inkscape:locked="false" />
    <sodipodi:guide
       position="-158.75928,719.78633"
       orientation="0,1"
       id="guide8896"
       inkscape:locked="false" />
    <sodipodi:guide
       position="-147.49491,703.61816"
       orientation="1,0"
       id="guide8922"
       inkscape:locked="false" />
    <sodipodi:guide
       position="-213.42311,880.00792"
       orientation="0,1"
       id="guide8924"
       inkscape:locked="false" />
    <sodipodi:guide
       position="-357.88081,649.83162"
       orientation="0,1"
       id="guide8926"
       inkscape:locked="false" />
    <sodipodi:guide
       position="-137.55348,605.74624"
       orientation="1,0"
       id="guide8991"
       inkscape:locked="false" />
    <sodipodi:guide
       position="-231.80147,639.67552"
       orientation="0,1"
       id="guide8993"
       inkscape:locked="false" />
    <sodipodi:guide
       position="-285.31397,844.81632"
       orientation="0,1"
       id="guide9013"
       inkscape:locked="false" />
    <sodipodi:guide
       position="200,352"
       orientation="1,0"
       id="guide5070"
       inkscape:locked="false" />
    <sodipodi:guide
       position="50,215"
       orientation="1,0"
       id="guide5335"
       inkscape:locked="false" />
    <sodipodi:guide
       position="350,137"
       orientation="1,0"
       id="guide5337"
       inkscape:locked="false" />
    <sodipodi:guide
       position="10,275.5"
       orientation="1,0"
       id="guide5354"
       inkscape:locked="false" />
    <sodipodi:guide
       position="203.46998,66.733203"
       orientation="0,1"
       id="guide5358"
       inkscape:locked="false" />
  </sodipodi:namedview>
  <metadata
     id="metadata7">
    <rdf:RDF>
      <cc:Work
         rdf:about="">
        <dc:format>image/svg+xml</dc:format>
        <dc:type
           rdf:resource="http://purl.org/dc/dcmitype/StillImage" />
        <dc:title>Guix System Distribution (Logo)</dc:title>
        <dc:date>2015-02-07</dc:date>
        <dc:creator>
          <cc:Agent>
            <dc:title>Luis Felipe López Acevedo</dc:title>
          </cc:Agent>
        </dc:creator>
        <dc:rights>
          <cc:Agent>
            <dc:title>Luis Felipe López Acevedo</dc:title>
          </cc:Agent>
        </dc:rights>
        <cc:license
           rdf:resource="http://creativecommons.org/licenses/by-sa/4.0/" />
        <dc:description />
      </cc:Work>
      <cc:License
         rdf:about="http://creativecommons.org/licenses/by-sa/4.0/">
        <cc:permits
           rdf:resource="http://creativecommons.org/ns#Reproduction" />
        <cc:permits
           rdf:resource="http://creativecommons.org/ns#Distribution" />
        <cc:requires
           rdf:resource="http://creativecommons.org/ns#Notice" />
        <cc:requires
           rdf:resource="http://creativecommons.org/ns#Attribution" />
        <cc:permits
           rdf:resource="http://creativecommons.org/ns#DerivativeWorks" />
        <cc:requires
           rdf:resource="http://creativecommons.org/ns#ShareAlike" />
      </cc:License>
    </rdf:RDF>
  </metadata>
  <g
     inkscape:groupmode="layer"
     id="layer5"
     inkscape:label="ramen"
     sodipodi:insensitive="true">
    <rect
       style="fill:#ffffff;fill-opacity:1;stroke:none;stroke-width:1.45544064;stroke-miterlimit:4;stroke-dasharray:none;stroke-opacity:1"
       id="rect942"
       width="400"
       height="300"
       x="-3.7303494e-14"
       y="1.7330311e-15" />
  </g>
  <g
     inkscape:groupmode="layer"
     id="layer4"
     inkscape:label="bg"
     style="display:inline"
     transform="translate(0,-47.278107)"
     sodipodi:insensitive="true">
    <rect
       style="display:inline;opacity:1;vector-effect:none;fill:#421111;fill-opacity:1;stroke:none;stroke-width:1.47144902;stroke-linecap:round;stroke-linejoin:round;stroke-miterlimit:4;stroke-dasharray:none;stroke-dashoffset:0;stroke-opacity:0.97635139"
       id="rect12062"
       width="380"
       height="279.99997"
       x="10"
       y="57.278107" />
  </g>
  <g
     inkscape:groupmode="layer"
     id="layer1"
     inkscape:label="head"
     style="display:none;opacity:1"
     transform="translate(0,-47.278107)"
     sodipodi:insensitive="true">
    <g
       transform="matrix(0.40699717,0,0,0.40699717,31.535627,27.300788)"
       id="layer1-6"
       inkscape:label="Layer 1"
       style="fill:#ff0000">
      <g
         transform="translate(126.95974,19.57999)"
         id="Layer_1"
         style="fill:#ff0000">
        <g
           id="g2490"
           style="fill:#ff0000">
          <path
             style="fill:#ff0000;fill-rule:evenodd"
             d="m 112.993,304.372 c -3.634,0.247 -8.365,1.875 -11.539,7.564 -2.591,4.646 -8.661,5.387 -11.495,4.451 -4.721,-1.56 -10.755,-2.642 -16.6,1.523 -5.845,4.164 -12.157,1.015 -11.05,-6.576 1.107,-7.59 3.849,-14.351 11.127,-18.538 15.895,-9.144 4.848,-15.508 13.572,-24.685 8.741,-9.195 6.81,-12.009 6.52,-24.497 C 63.985,239.176 47.241,230.661 28.544,207.301 9.847,183.94 2.599,164.711 0.661,135.423 -1.277,106.135 0.403,87.154 13.057,62.843 25.711,38.532 39.034,26.829 62.122,14.69 85.21,2.553 107.832,-0.354 128.742,0 c 20.91,0.353 34.843,1.885 46.658,8.626 11.814,6.741 22.622,15.224 29.512,15.285 6.891,0.061 11.582,-1.744 14.931,-4.31 0.894,22.703 -19.539,24.675 -37.819,25.155 -18.281,0.479 -29.514,-7.083 -46.351,-4.27 -16.837,2.813 -44.404,10.475 -57.833,33.85 -13.429,23.375 -13.887,31.638 -12.771,51.24 1.116,19.603 17.988,34.228 27.512,34.387 9.523,0.159 11.649,-2.599 19.985,-8.036 8.337,-5.438 50.896,-58.122 65.418,-69.956 14.523,-11.834 28.854,-15.488 44.328,-15.678 15.474,-0.19 19.428,0.335 31.908,5.45 12.48,5.114 20.149,14.533 30.211,20.291 5.143,-3.027 8.338,-7.547 13.057,-10.996 16.877,-12.335 25.646,-15.659 45.705,-13.707 11.529,1.122 26.066,7.708 34.74,15.25 15.445,13.429 28.205,32.125 38.516,46.328 8.029,11.061 17.477,24.295 30.965,28.432 14.727,4.515 25.809,-14.559 27.436,-25.139 0.922,-5.995 2.125,-11.249 2.135,-17.847 0.01,-6.599 -0.664,-14.607 -2.566,-21.484 -1.902,-6.877 -5.16,-13.72 -8.688,-19.394 -5.742,-9.235 -15.137,-18.899 -24.912,-23.871 -5.486,-2.79 -18.393,-7.863 -26.529,-8.041 -9.969,-0.216 -17.564,3.133 -26.781,3.761 -11.156,0.761 -31.084,3.269 -39.83,-5.35 -5.566,-5.485 -6.266,-9.144 -7.217,-16.296 2.459,2.026 5.898,3.358 8.959,3.617 6.986,0.59 13.527,-5.114 19.166,-8.419 4.645,-2.723 11.223,-7.589 17.324,-10.048 15.676,-6.32 34.932,-6.138 51.48,-4.445 13.264,1.356 30.461,7.257 42.094,13.84 11.688,6.612 22.951,17.761 31.201,28.271 10.379,13.224 16.053,24.57 19.812,41.063 4.805,21.062 6.137,52.702 0.328,73.469 -4.578,16.365 -19.779,41.504 -32.719,53.827 -12.762,12.155 -27.498,18.022 -44.256,21.231 0.656,3.382 0.764,6.536 1.631,9.309 1.232,3.936 3.588,8.324 8.428,6.936 1.93,-0.553 2.963,-1.032 5.508,1.194 2.543,2.226 1.219,10.825 -5.938,14.684 -3.629,1.957 -7.459,2.382 -13.271,2.498 -5.812,0.116 -14.883,0.141 -21.193,-0.964 -6.309,-1.104 -10.078,-6.111 -17.066,-6.895 -10.799,-1.208 -19.068,-9.01 -27.727,-14.59 -3.613,-2.329 -4.832,-2.353 -6.914,-3.53 1.125,3.444 2.625,7.021 3.373,10.332 0.75,3.311 0.43,6.378 0.828,9.028 0.396,2.648 1.131,4.707 1.559,6.855 1.73,1.547 2.283,3.9 5.189,4.64 2.908,0.739 7.461,-0.412 10.436,-0.812 2.975,-0.4 4.969,-2.021 7.303,-1.577 2.336,0.443 4.549,2.115 6.506,3.682 1.957,1.567 3.639,1.796 5.223,5.706 1.584,3.91 3.037,11.917 3.254,17.269 0.217,5.352 -0.383,10.183 -1.969,14.43 -1.586,4.247 -2.98,6.13 -7.275,10.336 -4.295,4.207 -11.289,10.38 -18.268,14.68 1.285,1.903 1.855,3.645 3.859,5.71 2.004,2.066 6.182,4.381 8.041,6.56 1.857,2.179 2.799,3.742 2.826,6.186 0.029,2.443 -0.09,5.619 -2.074,8.283 -4.941,6.633 -10.785,7.821 -17.891,10.941 1.195,7.462 2.17,12.793 0.443,20.244 -0.705,3.036 -2.271,9.92 -6.016,11.686 -3.746,1.766 -10.969,0.911 -15.541,1.637 -4.572,0.727 -7.131,1.417 -10.695,2.125 -2.166,3.131 -5.391,6.586 -6.496,9.392 -1.107,2.807 -0.773,3.813 0.156,6.679 0.929,2.866 4.092,7.039 4.988,10.395 0.896,3.356 1.07,6.969 0.234,10.334 -0.838,3.365 -2.271,5.807 -5.139,8.795 -2.867,2.989 -8.508,5.336 -11.318,7.758 -2.812,2.423 -5.611,2.714 -4.844,6.723 1.055,5.506 9.1,14.436 14.92,16.562 3.488,1.275 8.17,0.873 12.406,-0.915 -0.287,4.703 -4.357,7.873 -7.016,10.996 7.201,-2.059 14.184,-6.001 19.014,-11.226 -1.498,4.538 -6.652,11.823 -14.361,18.22 -7.709,6.397 -7.662,5.088 -11.494,7.633 6.992,1.405 13.494,1.025 18.91,0.052 -2.969,1.637 -7.836,3.939 -14.283,4.616 -6.447,0.676 -10.422,0.198 -16.232,-1.213 -5.811,-1.412 -11.115,-6.694 -18.156,-10.335 0.686,2.612 1.174,5.753 4.135,8.439 2.961,2.686 7.441,4.052 12.203,6.375 -6.062,-0.688 -12.432,-0.896 -18.389,-2.209 -4.41,-0.973 -7.373,-2.005 -10.6,-3.603 -3.225,-1.598 -5.715,-3.929 -8.572,-5.893 1.369,2.615 1.775,5.691 4.105,7.847 2.33,2.156 6.117,2.959 9.18,4.44 -3.195,-0.07 -6.268,0.623 -9.58,-0.21 -3.314,-0.833 -6.422,-2.142 -9.867,-4.68 -3.445,-2.538 -6.998,-5.663 -9.938,-8.858 -2.938,-3.195 -6.566,-7.337 -7.664,-10.283 -1.1,-2.947 0.66,-5.008 0.99,-7.509 -2.029,1.333 -4.525,2.067 -6.084,4.002 -1.559,1.935 -2.941,3.702 -2.251,7.075 0.691,3.373 3.804,7.496 6.005,11.248 -6.568,-5.371 -10.236,-7.439 -11.799,-13.918 -1.463,-6.066 2.322,-11.572 5.199,-16.159 1.429,-2.278 3.567,-4.398 4.903,-6.597 -2.967,-2.903 -6.358,-5.398 -8.901,-8.709 -2.542,-3.31 -3.61,-7.79 -6.205,-10.957 -2.596,-3.168 -6.088,-5.173 -9.129,-7.756 2.673,5.742 7.066,12.785 8.02,17.229 0.953,4.444 -1.069,7.164 -2.646,9.563 -1.578,2.399 -4.124,2.934 -6.539,4.408 -2.415,1.475 -6.171,0.312 -7.61,2.501 -1.438,2.188 -1.824,5.48 -0.449,7.648 l 5.64,8.902 c -2.078,-1.049 -5.658,-4.1 -7.272,-6.264 -1.614,-2.164 -4.09,-4.163 -4.429,-7.089 -0.339,-2.925 -0.504,-5.464 1.391,-8.07 1.896,-2.605 7.086,-3.477 9.409,-5.48 2.323,-2.003 3.626,-3.307 3.493,-5.896 -0.132,-2.589 -2.661,-4.441 -4.835,-6.073 -6.637,-4.978 -15.151,-9.565 -20.787,-15.565 -3.184,-3.39 -4.712,-6.127 -5.352,-8.466 -0.639,-2.338 0.037,-4.162 1.619,-7.038 1.582,-2.877 7.007,-6.718 7.667,-9.843 0.659,-3.124 -2.081,-3.795 -4.554,-4.897 -2.473,-1.102 -7.17,0.565 -9.464,-1.352 -2.293,-1.917 0.674,-5.945 -1.911,-8.154 -2.584,-2.209 -8.499,-0.976 -11.552,-3.352 -3.053,-2.377 -4.315,-5.327 -5.367,-8.775 -1.052,-3.448 -1.171,-7.225 -0.458,-9.722 0.713,-2.497 2.855,-2.934 4.147,-4.228 1.292,-1.294 2.413,-2.367 0.691,-4.297 -1.722,-1.929 -7.365,0.108 -10.609,-2.369 -3.244,-2.477 -1.258,-8.41 -3.552,-10.911 -2.293,-2.501 -6.409,-1.522 -8.581,-2.321 -2.171,-0.799 -3.023,2.02 -4.355,-2.438 -1.332,-4.459 -1.368,-17.75 -3.16,-22.71 -1.792,-4.96 -5.311,-0.335 -6.945,-5.265 -1.634,-4.929 -0.085,-12.812 -0.821,-20.257 l -3.335,-20.257 c -11.634,7.815 -19.314,10.269 -31.813,12.477 -1.043,30.582 -3.916,48.591 6.464,82.52 10.38,33.928 31.387,53.924 59.726,82.649 -37.395,-28.016 -55.248,-50.792 -66.422,-79.97 -11.176,-29.182 -9.03,-53.586 -7.906,-81.686 z M 311.701,292.08 c 2.877,0.129 6.373,0.859 8.393,2.171 2.021,1.312 4.166,2.384 6,4.251 4.576,4.66 8.008,10.28 9.525,16.738 0.967,4.117 1.111,9.397 1.463,14.231 -1.385,-4.468 -2.316,-9.127 -4.289,-13.13 -3.111,-6.312 -8.396,-12.473 -14.959,-15.31 -2.166,-0.938 -3.611,-0.764 -4.803,-0.598 0.533,0.895 1.426,1.645 1.465,2.956 0.039,1.311 -0.254,3.876 -2.477,4.954 -3.584,1.739 -7.568,0.516 -10.336,-1.931 -2.791,-2.466 -3.742,-6.638 -2.281,-10.223 1.741,-4.272 8.375,-4.283 12.299,-4.109 z M 275.629,286 c 0.361,-7.345 3.012,-13.539 9.594,-17.141 3.404,-1.862 8.648,-4.27 13.467,-4.836 4.629,-0.543 15.889,-0.146 22.662,2.945 5.201,2.374 8.744,6.07 13.311,8.771 4.566,2.702 7.814,4.513 12.162,7.543 6.674,4.651 10.586,9.772 15.213,12.842 2.225,1.475 5.355,1.256 8.309,2.158 -2.297,0.682 -5.299,1.434 -7.777,0.642 -3.09,-0.988 -7.41,-3.813 -9.807,-5.838 -4.236,-3.578 -6.432,-5.324 -11.055,-8.023 -2.76,-1.608 -7.305,-3.503 -10.338,-5.481 -3.035,-1.978 -8.303,-6.318 -11.219,-7.787 -3.707,-1.866 -10.381,-2.904 -14.508,-2.783 -5.686,0.166 -13.916,1.104 -18.316,5.096 -4.371,3.968 -6.031,7.459 -5.045,12.612 1.646,-1.896 2.742,-4.278 4.391,-5.688 3.416,-2.918 7.336,-3.059 11.588,-2.506 4.777,0.622 7.182,3.381 8.76,7.916 -1.062,-0.78 -3.014,-2.493 -4.555,-3.024 -3.617,-1.248 -6.352,-0.864 -9.74,0.953 -4,2.146 -2.912,5.322 -3.488,8.854 -0.264,1.629 -0.879,2.941 -1.318,4.412 -1.504,-0.398 -2.895,-1.024 -4.033,-2.152 0.047,1.65 -0.193,3.093 0.145,4.949 0.336,1.855 1.24,4.059 1.859,6.088 -2.785,-2.786 -5.635,-5.38 -7.434,-8.977 -1.801,-3.599 -3.021,-7.593 -2.828,-11.545 z m 4.82,-53.46 c 2.053,-3.047 2.654,-7.721 3.92,-11.521 -0.506,4.813 0.467,10.106 -1.883,13.592 -2.35,3.486 -6.477,2.875 -9.896,3.889 2.66,-2.028 5.805,-2.913 7.859,-5.96 z m -49.151,71.368 c 2.636,-2.134 9.75,-0.428 15.071,-0.047 -3.824,0.979 -7.648,1.959 -11.472,2.938 -0.356,1.301 -0.195,2.792 -1.068,3.901 -0.874,1.11 -2.534,1.521 -3.8,2.28 0.125,-3.418 -1.367,-6.939 1.269,-9.072 z m 37.491,-148.22 c 3.176,1.71 7.207,3.971 10.012,4.041 2.805,0.07 3.539,-1.834 5.189,-2.933 2.596,8.465 5.576,17.766 9.996,25.447 1.852,3.218 3.033,1.722 4.441,4.956 1.406,3.233 2.031,9.812 3.365,13.943 1.336,4.131 3.078,7.171 4.617,10.756 -3.908,-5.537 -8.957,-12.597 -11.135,-17.205 -2.176,-4.607 -0.783,-5.008 -2.545,-9.396 -1.762,-4.388 -5.324,-11.228 -7.986,-16.842 -1.906,0.253 -4.266,0.6 -5.715,0.153 -1.449,-0.447 -1.16,-1.988 -2.469,-2.984 -1.311,-0.996 -3.514,-0.61 -5.35,-2.2 -1.836,-1.589 -2.254,-4.85 -2.42,-7.736 z m -17.101,41.769 c 2.989,-0.262 6.701,0.539 9.5,0.38 2.799,-0.159 4.797,-0.885 7.196,-1.328 -0.445,-4.216 -0.023,-11.962 -3.915,-14.777 -2.514,-1.818 -12.839,-0.449 -15.597,0.146 -6.206,1.338 -13.433,5.042 -19.435,7.358 5.752,-4.018 10.721,-7.742 17.62,-9.816 4.147,-1.247 13.825,-2.868 18.105,-1.712 1.954,0.527 2.349,1.336 3.534,2.992 4.074,5.688 4.062,10.604 5.119,17.23 1.039,1.619 2.146,2.699 2.988,4.369 0.84,1.67 1.316,4.298 1.551,6.446 -1.066,-1.546 -0.414,-3.485 -3.367,-4.636 -2.955,-1.151 -7.479,-0.076 -11.46,0.34 2.902,2.094 4.344,4.111 4.455,8.538 0.13,5.198 -4.271,8.939 -8.866,9.295 -6.379,0.495 -9.668,-0.906 -12.248,-6.358 -1.13,-2.388 -0.311,-5.261 -0.405,-7.589 -7.665,0.533 -7.54,0.283 -13.142,4.954 3.045,4.461 4.963,7.026 9.995,9.695 2.822,1.498 6.017,2.954 9.514,3.549 3.498,0.595 9.235,1.17 12.909,0.606 3.675,-0.564 5.757,-1.613 8.481,-4.132 2.725,-2.52 2.975,-6.128 4.039,-8.98 -0.242,2.745 -0.557,6.241 -1.576,8.232 -3.1,6.053 -8.461,7.847 -14.862,7.867 -6.144,0.02 -13.744,-1.397 -19.46,-3.767 -4.57,-1.894 -12.146,-7.258 -13.944,-11.918 -1.229,-3.184 -0.256,-7.091 -0.385,-10.637 6.328,-4.208 7.894,-3.173 15.381,-4.405 3.132,-0.516 5.286,-1.679 8.275,-1.942 z m -36.861,-28.501 c 0.178,-2.521 0.457,-2.467 0.686,-3.701 -5.765,-1.542 -8.077,2.198 -11.457,9.144 -1.265,2.599 -0.013,4.146 -1.37,5.857 -1.355,1.711 -3.539,1.471 -5.74,3.114 -2.201,1.642 -4.382,4.787 -6.44,6.488 -4.223,3.491 -9.931,5.622 -14.829,7.971 3.345,-2.468 9.836,-6.211 11.936,-9.797 1.114,-1.901 0.949,-5.486 2.683,-7.195 1.733,-1.71 2.34,-2.893 4.578,-3.329 2.238,-0.436 1.338,-3.03 2.06,-5.092 0.722,-2.062 2.16,-3.526 3.69,-5.586 1.53,-2.06 3.46,-5.153 6.481,-6.276 3.021,-1.124 7.732,0.091 10.019,-0.556 2.286,-0.647 0.973,-2.309 2.634,-3.307 1.663,-0.998 4.896,-0.558 7.117,-1.625 3.937,-1.893 5.82,-5.053 8.188,-8.436 0.344,7.282 0.26,12.525 -2.357,19.376 -2.947,7.711 -5.934,12.253 -14.298,16.995 -2.882,1.633 -5.75,2.2 -8.139,3.057 1.393,-1.9 3.387,-2.725 4.18,-5.7 0.791,-2.977 0.2,-8.88 0.378,-11.402 z m 135.038,35.507 c -3.977,0.259 -4.92,-0.264 -8.102,1.98 1.725,2.684 3.449,5.368 5.172,8.052 -0.152,-5.298 0.364,-6.36 2.93,-10.032 z m -10.42,-3.85 c 5.508,-2.346 10.307,-4.244 16.299,-4.619 2.402,-0.151 6.131,0.221 8.557,0.331 2.066,-3.042 4.699,-5.441 5.664,-8.913 0.639,-2.303 0.324,-12.992 -0.807,-15.767 -3.295,-8.076 -6.498,-8.417 -11.033,-13.043 -3.291,-3.355 -3.422,-8.464 -4.406,-14.189 -0.361,-2.103 -1.393,-4.764 -1.877,-6.934 -5.928,-0.999 -12.303,-1.328 -19.123,-0.987 3.307,-3.172 6.504,-6.07 7.453,-10.832 0.947,-4.762 0.176,-10.617 -2.531,-14.887 -2.707,-4.27 -7.031,-7.99 -11,-11.469 -3.971,-3.479 -9.662,-6.351 -13.424,-9.197 4.893,-1.752 9.889,-4.326 14.682,-5.255 12.486,-2.422 23.244,1.282 35.287,8.563 7.002,4.235 12.793,8.258 20.113,15.921 7.318,7.662 16.395,21.717 23.48,30.052 7.085,8.335 12.805,14.927 18.986,19.898 6.182,4.972 11.777,6.388 17.664,9.581 l 9.176,9.744 7.426,-9.189 11.949,1.351 2.469,-13.412 10.967,-3.005 -1.789,-18.08 7.885,-5.596 -5.926,-11.249 6.021,-12.292 -7.85,-14.051 3.027,-13.529 -9.088,-7.745 -1.186,-14.377 -12.678,-4.836 -5.086,-12.508 -14.254,-0.16 -6.992,-9.285 -9.596,0.672 -10.697,-1.165 -6.049,-4.466 -8.779,5.828 -10.623,-5.539 -21.117,8.017 13.766,-11.972 14.262,-2.278 10.926,-2.785 14.756,4.846 12.988,-3.29 12.523,7.403 13.252,-0.733 6.51,11.681 13.195,1.523 7.139,12.987 8.299,4.531 2.203,16.637 7.391,7.01 -3.25,14.557 8.707,11.024 -8.164,11.812 8.73,7.383 -11.16,9.891 11.303,11.771 -13.65,4.402 8.891,12.625 -11.15,1.924 7.312,13.882 -12.566,-0.167 6.33,10.398 -13.783,-1.659 3.297,14.959 -10.416,-9.163 -3.568,18.13 -7.188,-13.018 -3.893,16.237 -8.873,-11.973 0.242,17.026 -9.807,-15.309 c 2.068,8.686 1.654,18.197 7.359,26.386 17.676,-2.392 29.229,-6.846 42.771,-19.877 12.334,-11.868 27.076,-36.613 31.068,-52.308 4.555,-17.91 4.695,-50.85 0.209,-69.084 C 522.282,71.848 516.67,63.462 506.643,49.136 497.059,38.957 487.633,28.204 475.469,20.945 457.613,10.29 434.717,7.417 414.367,7.694 c -11.268,0.154 -18.816,2.318 -25.553,4.768 -11.781,4.284 -21.203,13.629 -33.18,18.247 -3.906,1.505 -7.037,1.552 -10.113,-0.091 3.012,6.026 6.289,8.729 13.801,10.922 5.434,1.586 18.4,0.583 27.326,-0.241 9.582,-0.885 14.58,-3.734 27.621,-3.555 12.736,0.175 22.828,5.013 28.346,8.168 11.385,6.51 19.549,13.732 26.643,25.172 3.896,6.282 6.625,13.37 8.547,20.603 1.922,7.233 2.764,15.334 2.887,22.415 0.123,7.081 -0.418,13.402 -2.15,19.774 -4.051,14.918 -12.988,30.098 -31.346,27.753 -11.234,-1.436 -28.17,-22.522 -33.842,-30.258 C 401.909,115.758 390.133,98.481 375.752,85.479 366.984,77.554 354.979,72.1 343.19,71.021 c -22.117,-2.024 -28.676,2.177 -45.324,15.899 3.387,1.08 6.693,1.676 10.164,3.24 7.703,3.471 14.748,7.957 20.893,13.711 6.439,6.031 9.328,9.848 9.557,18.484 0.152,5.735 -4.566,10.333 -8.891,14.469 -2.646,2.533 -6.148,4.852 -8.291,6.818 -2.84,2.609 -6.357,5.463 -2.789,9.619 1.342,1.562 3.672,2.74 5.637,4.199 3.119,2.315 1.691,10.919 -2.418,13.201 -5.258,2.917 -11.541,2.591 -15.877,-1.314 5.473,-0.819 8.949,-1.545 8.807,-6.022 -0.082,-2.595 -3.381,-4.751 -6.619,-6.227 -7.809,-3.56 -13.707,-3.035 -21.479,-8.627 -7.85,-5.651 -8.023,-8.745 -10.145,-17.617 -3.785,0.396 -7.27,0.483 -12.331,2.159 -5.061,1.675 -10.654,5.663 -15.249,6.65 -11.572,2.49 -13.878,1.752 -20.211,0.113 -11.15,-2.886 -25.668,2.055 -40.09,6.668 -2.398,0.767 -12.097,0.026 -18.626,2.317 -10.084,3.538 -24.233,12.106 -32.405,18.988 -12.382,10.429 -28.654,41.64 -37.848,77.464 -0.966,10.89 2.131,18.227 -4.729,23.546 -6.86,5.319 -6.67,18.946 -8.996,22.768 -2.326,3.821 -5.019,2.132 -10.026,7.499 -5.007,5.367 -7.556,4.47 -7.43,14.618 4.315,-2.837 10.606,-6.135 16.13,-6.334 4.892,-0.177 4.944,6.264 17.5,-6.149 6.715,-6.641 19.616,-6.844 28.567,-9.773 8.952,-2.929 25.083,-8.965 41.239,-27.027 16.156,-18.062 23.887,-37.077 27.02,-64.567 0.499,4.874 1.365,10.371 -0.722,23.816 -2.087,13.445 -6.585,28.546 2.891,46.634 l 5.904,11.269 c -3.515,-4.797 -10.381,-12.622 -12.448,-18.198 l -4.768,-12.863 c -10.667,16.748 -13.119,19.744 -27.937,31.743 -0.59,7.444 -0.735,15.208 1.698,22.331 2.433,7.122 -1.445,15.332 0.406,20.023 1.851,4.691 6.132,2.021 7.53,6.77 1.398,4.749 -0.73,14.138 1.438,18.767 2.168,4.629 7.487,1.82 10.065,3.315 2.578,1.496 3.421,3.546 4.8,5.513 1.378,1.966 -0.539,6.614 2.265,8.123 2.803,1.51 7.176,0.231 10.093,1.68 2.917,1.449 3.36,4.932 2.661,8.053 -0.7,3.121 -3.817,4.553 -5.186,7.726 -1.368,3.174 -1.215,5.383 0.429,8.297 1.644,2.915 5.284,4.52 8.912,5.991 3.628,1.471 8.726,0.645 12.47,2.679 3.744,2.034 7.109,6.087 9.086,9.033 1.977,2.945 2.526,5.023 2.425,8.12 -0.102,3.096 -1.358,6.663 -3.011,9.654 -1.653,2.991 -5.3,6.631 0.394,12.343 5.694,5.711 5.484,3.249 8.746,6.954 -0.355,-6.409 -3.003,-11.63 -1.067,-16.455 1.937,-4.825 7.752,-5.664 10.817,-7.834 3.065,-2.171 4.83,-5.153 7.246,-7.729 -0.035,3.315 0.32,6.879 -0.057,9.375 -0.768,5.075 -2.266,9.58 5.297,10.394 3.407,0.366 6.642,-1.843 10.227,-3.169 -1.878,3.363 -5.144,6.067 -5.635,10.092 -0.491,4.023 0.099,8.443 2.885,12.436 2.787,3.991 7.599,6.955 11.125,9.301 3.525,2.347 5.414,2.535 8.123,3.804 0.133,3.956 -0.646,8.143 -0.195,11.869 0.451,3.726 1.625,7.024 3.779,10.104 2.156,3.081 5.613,4.848 8.869,7.126 -1.785,-4.157 -5.406,-8.101 -5.357,-12.471 0.049,-4.369 1.359,-7.466 5.621,-11.343 4.262,-3.878 14.24,-7.241 18.945,-11.011 4.705,-3.771 6.223,-6.081 7.912,-9.742 1.689,-3.661 1.219,-9.559 1.531,-12.85 1.549,4.61 1.77,6.043 2.273,10.866 0.506,4.824 -2.811,11.59 -4.215,15.161 5.82,-2.811 9.514,-7.304 11.379,-11.695 1.248,0.74 0.619,2.769 1.078,6.679 2.074,-2.064 4.432,-3.652 6.52,-5.6 2.09,-1.946 4.379,-3.658 5.416,-6.375 1.035,-2.717 0.611,-5.606 -0.16,-8.763 -0.771,-3.157 -4.299,-6.818 -6.199,-10.271 -1.898,-3.452 0.336,-6.841 0.207,-11.001 -3.801,-0.653 -7.029,-2.589 -11.398,-1.96 -4.371,0.628 -9.377,5.533 -13.844,5.59 -4.467,0.057 -6.975,-4.128 -10.637,-5.278 -3.662,-1.15 -7.367,-1.024 -11.049,-1.536 4.664,-4.468 22.766,-6.596 35.148,-8.615 10.895,-1.777 21.707,-2.804 32.746,-2.959 4.93,-0.07 11.266,1.558 14.689,0.574 3.426,-0.982 2.695,-3.315 3.711,-5.858 2.842,-7.108 1.441,-13.438 -0.105,-20.596 -9.91,-1.162 -20.236,-2.584 -30.221,-1.817 -9.762,0.75 -21.322,5.391 -31.391,5.705 -8.754,0.272 -21.717,-1.677 -29.234,-6.259 -9.186,-5.599 -16.293,-17.624 -18.816,-21.485 -4.109,-6.289 -9.292,-18.627 -12.446,-24.268 -3.152,-5.641 -3.847,-7.219 -6.47,-9.574 -2.623,-2.354 -6.216,-2.536 -9.323,-3.805 3.582,0.366 7.493,-0.768 10.747,1.098 4.889,2.805 10.361,14.431 13.403,19.49 3.223,-10.804 2.471,-15.052 11.797,-21.144 -7.516,8.424 -7.703,14.805 -9.535,24.723 6.25,10.258 14.939,26.598 26.309,31.132 4.107,1.639 11.16,2.667 15.6,3.216 13.818,1.711 27.146,-2.668 40.717,-6.019 9.92,-2.45 19.986,-1.463 32.051,-0.754 4.096,0.24 13.754,-2.224 15.754,-6.367 1.08,-2.235 1,-4.921 -0.551,-7.303 -1.553,-2.382 -5.689,-3.534 -7.906,-5.678 -2.217,-2.144 -3.492,-4.689 -5.238,-7.034 -9.215,1.768 -16.795,2.447 -23.635,2.633 4.906,-2.021 9.613,-3.174 14.719,-5.171 5.106,-1.997 10.904,-5.275 15.025,-7.995 4.121,-2.721 6.752,-4.299 9.734,-7.465 2.98,-3.168 6.803,-6.431 9,-10.303 2.199,-3.872 2.539,-8.203 2.662,-12.995 0.123,-4.791 -0.084,-11.514 -1.932,-15.374 -1.846,-3.859 -5.406,-5.03 -8.266,-5.943 -2.861,-0.913 -4.82,1.396 -7.795,1.708 -2.977,0.312 -5.758,2.188 -10.062,0.164 -4.304,-2.024 -9.406,-6.144 -13.758,-12.259 -4.35,-6.116 -7.461,-16.112 -11.896,-23.802 -7.645,-13.256 -17.172,-25.639 -26.283,-37.922 -0.75,-3.029 -1.877,-7.215 -2.252,-11.324 -0.654,-7.16 -0.777,-14.598 1.445,-21.578 1.703,-5.347 4.18,-10.995 9.779,-13.188 2.24,-0.878 5.074,-1.226 7.076,-0.484 2.004,0.741 3.969,3.002 3.182,5.614 -0.865,2.872 -2.855,2.95 -4.207,4.4 -2.295,2.46 -3.213,4.265 -4.08,7.332 2.48,-0.04 5.832,-0.229 7.869,0.307 2.658,0.7 5.133,2.462 6.482,6.228 -3.172,-2.813 -4.748,-4.104 -8.707,-4.204 -1.814,-0.045 -4.018,0.604 -6.025,0.906 -0.75,2.44 -1.191,5.432 -2.25,7.32 -1.059,1.888 -3.121,1.435 -3.895,3.641 -0.774,2.202 -0.819,5.788 -0.429,8.683 z m 27.715,-3.307 c 1.215,0.479 1.678,0.584 3.217,1.755 1.539,1.171 3.662,2.34 4.881,5.138 1.221,2.799 1.164,7.127 0.904,8.89 -1.07,-0.314 -2.529,-0.102 -3.639,-1.051 -1.107,-0.949 -1.768,-3.098 -3.188,-4.018 -1.422,-0.919 -2.607,-0.718 -4.178,-0.917 0.807,2.296 1.199,4.593 0.824,6.675 -0.814,4.545 -3.486,6.847 -7.812,7.391 -1.889,0.237 -4.889,-0.385 -6.533,-0.684 0.762,1.702 2.053,3.193 2.816,4.895 3.658,-0.529 6.369,-0.454 8.336,-1.374 1.967,-0.92 4.076,-2.981 6.6,-3.854 2.525,-0.873 4.777,-0.859 7.539,-1.29 -2.176,1.875 -3.604,3.751 -5.777,5.626 1.594,4.633 3.188,9.265 4.781,13.897 3.379,2.114 6.549,3.228 10.807,5.838 4.26,2.611 9.367,7.281 14.914,9.828 5.547,2.547 8.85,3.933 14.646,5.026 5.795,1.093 10.406,5.787 16.109,6.55 5.703,0.763 16.355,0.917 20.75,0.488 4.99,-0.487 11.473,-3.062 12.055,-8.533 -4.184,1.032 -10.574,0.106 -13.801,-7.767 -1.432,-3.496 -0.73,-9.925 -2.922,-14.059 -2.191,-4.135 -5.246,-5.462 -8.896,-10.556 -3.65,-5.094 -9.621,-13.129 -12.973,-19.954 -3.35,-6.824 -4.139,-14.554 -6.973,-20.669 -2.834,-6.114 -7.109,-11.053 -10.422,-15.766 -7.234,-10.3 -13.068,-17.339 -24.986,-22.535 -5.732,-2.499 -12.258,-3.165 -18.387,-4.748 -2.494,1.117 -5.914,2.351 -6.521,5.268 -0.607,2.917 0.559,7.225 2.676,9.415 3.543,3.661 8.793,7.618 10.857,13.437 1.326,3.734 1.711,16.252 0.562,19.649 -1.192,3.527 -3.963,5.66 -6.266,8.009 z m 1.154,29.629 c -1.107,0.955 -1.951,1.936 -3.732,2.729 -1.779,0.793 -4.209,0.998 -6.57,1.588 3.311,5.154 6.789,10.362 9.961,15.781 3.174,5.418 5.924,11.351 8.953,17.025 -0.143,-3.252 0.049,-6.719 -0.424,-9.758 -0.473,-3.038 -1.85,-5.697 -3.215,-10.258 -1.363,-4.561 -3.041,-10.766 -4.973,-17.107 z M 279.229,113.611 c -0.467,5.07 0.391,12.996 1.441,17.96 1.258,5.942 2.469,9.023 7.291,12.603 8.83,6.555 14.467,5.45 21.26,9.251 3.232,1.809 7.328,4.841 8.523,8.046 1.195,3.205 -0.789,6.685 -3.24,8.053 4.287,0.638 9.094,-4.195 7.088,-9.157 -0.988,-2.442 -5.691,-3.53 -7.133,-5.994 -1.439,-2.463 -1.436,-4.999 -0.758,-7.501 1.225,-4.51 10.148,-8.608 13.301,-12.173 4.852,-5.486 6.715,-10.075 3.967,-17.14 -3.859,-9.925 -18.768,-17.889 -27.691,-21.784 -4.086,-1.783 -6.377,-1.91 -9.564,-2.865 6.525,3.824 13.404,6.87 16.705,15.418 2.756,7.139 0.369,9.829 0.461,16.045 0.043,2.882 3.838,4.323 5.523,6.144 1.467,1.583 1.348,2.758 0.176,4.943 -0.129,-1.971 -0.971,-3.442 -2.484,-4.513 -2.498,-1.771 -5.189,-1.39 -6.52,-5.021 -2.02,-5.52 1.986,-10.748 -2.518,-16.946 -3.369,-4.637 -7.85,-9.827 -13.895,-9.963 -2.861,-0.065 -5.012,0.367 -8.068,1.271 l -4.074,-4.903 -0.094,-0.064 C 270.639,87.758 264.969,81.525 253.344,76.327 241.719,71.13 235.99,70.343 222.661,70.639 c -13.329,0.295 -26.557,1.41 -41.995,14.723 -15.437,13.313 -55.224,64.292 -64.873,70.744 -9.648,6.452 -11.785,8.638 -23.841,8.641 C 79.896,164.75 61.08,147.697 60.343,126.385 59.605,105.072 59.309,97.497 74.124,71.822 88.94,46.146 115.78,38.262 135.694,35.6 c 19.915,-2.662 31.882,4.352 46.613,4.385 14.73,0.034 29.288,-2.509 33.581,-14.224 -2.101,1.251 -4.916,2.661 -12.832,2.246 C 195.14,27.592 184.164,18.427 171.817,12.286 159.47,6.146 145.73,5.427 128.107,5.094 110.484,4.761 88.494,6.108 66.708,17.869 44.922,29.63 30.051,42.109 17.415,65.127 4.779,88.146 2.891,106.94 4.928,134.811 c 2.037,27.871 10.633,48.599 27.184,68.998 16.551,20.399 33.092,30.38 62.918,34.091 l 6.279,-27.696 -11.209,16.086 0.277,-17.891 -10.139,12.581 -4.447,-17.062 -8.214,13.679 -4.08,-19.05 -11.903,9.627 3.768,-15.719 -15.75,1.743 7.235,-10.926 -14.361,0.175 L 40.842,168.86 28.1,166.837 38.26,153.57 22.66,148.945 35.576,136.577 22.823,126.184 32.798,118.426 23.47,106.014 33.42,94.431 29.706,79.135 38.155,71.77 40.67,54.289 50.152,49.527 58.31,35.881 73.389,34.28 l 7.44,-12.274 15.145,0.771 14.312,-7.779 14.843,3.457 16.86,-5.092 12.487,2.926 16.296,2.395 15.733,12.58 -24.133,-8.424 -12.14,5.821 -10.035,-6.125 -6.909,4.693 -12.225,1.224 -10.963,-0.708 -7.992,9.756 -16.291,0.168 -5.811,13.143 -14.486,5.082 -1.355,15.107 -10.388,8.138 3.461,14.216 -8.971,14.765 6.882,12.915 -6.773,11.82 9.011,5.88 -2.044,18.998 12.532,3.158 2.823,14.093 13.656,-1.419 8.484,9.656 10.486,-10.239 c 19.116,-9.532 26.988,-14.864 41.886,-30.977 16.959,-18.343 26.679,-35.302 49.269,-47.861 16.202,-9.008 29.417,-12.25 47.617,-9.105 17.088,2.952 22.81,13.202 35.395,24 1.334,-2.415 1.605,-3.055 3.803,-4.833 -0.69,3.136 -1.786,6.389 -2.065,9.405 z"
             id="path2492"
             inkscape:connector-curvature="0" />
        </g>
      </g>
    </g>
  </g>
  <g
     inkscape:label="gnu:net grunge"
     id="g12308"
     inkscape:groupmode="layer"
     style="display:none"
     transform="translate(-387.41463,-589.81931)">
    <text
       xml:space="preserve"
       style="font-style:normal;font-variant:normal;font-weight:normal;font-stretch:normal;font-size:16.53852463px;line-height:125%;font-family:Ubuntu;-inkscape-font-specification:Ubuntu;letter-spacing:0px;word-spacing:0px;display:inline;opacity:1;fill:#000000;fill-opacity:1;stroke:none;stroke-width:1.03365779px;stroke-linecap:butt;stroke-linejoin:miter;stroke-opacity:1"
       x="478.95114"
       y="859.00549"
       id="text12220"><tspan
         sodipodi:role="line"
         id="tspan12218"
         x="478.95114"
         y="859.00549"
         style="font-style:normal;font-variant:normal;font-weight:normal;font-stretch:normal;font-size:36px;font-family:ReservoirGrunge;-inkscape-font-specification:ReservoirGrunge;fill:#ffffff;stroke-width:1.03365779px"
         dx="0 2.5 2.5 0 -4 2.5 2.5">gnu net</tspan></text>
  </g>
  <g
     transform="translate(-387.41463,-589.81931)"
     style="display:none"
     inkscape:groupmode="layer"
     id="g5346"
     inkscape:label="gnu:net ubuntu">
    <text
       id="text5344"
       y="859.96057"
       x="493.95291"
       style="font-style:normal;font-variant:normal;font-weight:normal;font-stretch:normal;font-size:16.53852463px;line-height:125%;font-family:Ubuntu;-inkscape-font-specification:Ubuntu;letter-spacing:0px;word-spacing:0px;display:inline;opacity:1;fill:#000000;fill-opacity:1;stroke:none;stroke-width:1.03365779px;stroke-linecap:butt;stroke-linejoin:miter;stroke-opacity:1"
       xml:space="preserve"><tspan
         dx="0 0 0"
         style="font-style:normal;font-variant:normal;font-weight:normal;font-stretch:normal;font-size:49.33333206px;font-family:'Ubuntu Bold';-inkscape-font-specification:'Ubuntu Bold, ';fill:#ffffff;stroke-width:1.03365779px"
         y="859.96057"
         x="493.95291"
         id="tspan5342"
         sodipodi:role="line">gnu net</tspan></text>
  </g>
  <g
     inkscape:label="gnu:net anonymous"
     id="g950"
     inkscape:groupmode="layer"
     style="display:inline"
     transform="translate(-387.41463,-589.81931)">
    <text
       xml:space="preserve"
       style="font-style:normal;font-variant:normal;font-weight:normal;font-stretch:normal;font-size:16.53852463px;line-height:125%;font-family:Ubuntu;-inkscape-font-specification:Ubuntu;letter-spacing:0px;word-spacing:0px;display:inline;opacity:1;fill:#000000;fill-opacity:1;stroke:none;stroke-width:1.03365779px;stroke-linecap:butt;stroke-linejoin:miter;stroke-opacity:1"
       x="507.95291"
       y="858.71057"
       id="text948"><tspan
         sodipodi:role="line"
         id="tspan946"
         x="507.95291"
         y="858.71057"
         style="font-style:normal;font-variant:normal;font-weight:bold;font-stretch:normal;font-size:50.66666794px;font-family:'Anonymous Pro';-inkscape-font-specification:'Anonymous Pro Bold';fill:#ffffff;stroke-width:1.03365779px"
         dx="0 -2.5 -3 0 -19.25 -2.5 -3">gnu net</tspan></text>
  </g>
  <g
     inkscape:groupmode="layer"
     id="layer3"
     inkscape:label="vertices 2"
     style="display:inline"
     transform="translate(0,-47.278107)"
     sodipodi:insensitive="true">
    <path
       style="display:inline;fill:none;fill-rule:evenodd;stroke:#3498db;stroke-width:2;stroke-linecap:butt;stroke-linejoin:miter;stroke-miterlimit:4;stroke-dasharray:none;stroke-opacity:1"
       d="m 51.98603,94.74526 63.6227,34.91188 23.31802,-11.09978 -35.03955,28.74946 11.86161,-17.77468 -53.18435,-5.79678 40.95076,23.69646 25.32406,0.49689 24.19305,3.02495 v 48.02104 l 21.04995,-32.14943 -20.559,-15.87161 32.52749,48.02104 -8.06937,31.38386 -24.94907,-31.76198 24.94907,77.51429 22.25436,-36.69889 21.97354,37.07701 -43.59987,-0.37188 41.32877,-28.87448 22.05899,-21.17152 -19.90986,50.171 -3.71591,-29.60613 -8.57843,-31.7682 -9.69437,24.71516 54.37611,-52.19866 -24.96716,8.94671 -18.39175,19.15282 18.27579,-55.07718 25.20812,27.362 20.66591,-41.35238 -46.00204,14.12783 22.94304,-37.07431 23.05297,23.0777 31.8814,-26.48075 40.07874,-25.58708 -15.26372,39.20869 -24.69305,-13.74039 -55.05634,4.03119 79.62738,9.58108 -56.57441,12.73416"
       id="path9316"
       inkscape:connector-curvature="0"
       sodipodi:nodetypes="ccccccccccccccccccccccccccccccccccccccccc" />
    <path
       style="display:inline;fill:none;fill-rule:evenodd;stroke:#3498db;stroke-width:1.5;stroke-linecap:butt;stroke-linejoin:miter;stroke-miterlimit:4;stroke-dasharray:none;stroke-opacity:1"
       d="m 139.04572,118.81358 37.0456,48.02106"
       id="path9318"
       inkscape:connector-curvature="0" />
    <path
       style="display:inline;fill:none;fill-rule:evenodd;stroke:#3498db;stroke-width:1.5;stroke-linecap:butt;stroke-linejoin:miter;stroke-miterlimit:4;stroke-dasharray:none;stroke-opacity:1"
       d="m 128.46126,147.9287 10.96248,-29.11512 12.47454,32.51819"
       id="path12058"
       inkscape:connector-curvature="0" />
    <path
       style="display:inline;fill:none;fill-rule:evenodd;stroke:#3498db;stroke-width:3;stroke-linecap:butt;stroke-linejoin:miter;stroke-miterlimit:4;stroke-dasharray:none;stroke-opacity:1"
       d="m 252.31652,123.28236 54.69043,-3.64603 -31.75647,27.04795"
       id="path12250"
       inkscape:connector-curvature="0"
       sodipodi:nodetypes="ccc" />
    <ellipse
       ry="4.1593032"
       rx="4.1581793"
       cy="112.66669"
       cx="83.343307"
       id="ellipse12260"
       style="display:inline;opacity:1;fill:#3498db;fill-opacity:1;stroke:#3498db;stroke-width:0.39663559;stroke-linecap:round;stroke-linejoin:round;stroke-miterlimit:4;stroke-dasharray:none;stroke-dashoffset:0;stroke-opacity:0.97635139" />
    <ellipse
       ry="4.1593032"
       rx="4.1581793"
       cy="123.35095"
       cx="63.064556"
       id="ellipse12264"
       style="display:inline;opacity:1;fill:#3498db;fill-opacity:1;stroke:#3498db;stroke-width:0.39663559;stroke-linecap:round;stroke-linejoin:round;stroke-miterlimit:4;stroke-dasharray:none;stroke-dashoffset:0;stroke-opacity:0.97635139" />
    <ellipse
       ry="4.1593032"
       rx="4.1581793"
       style="display:inline;opacity:1;fill:#3498db;fill-opacity:1;stroke:#3498db;stroke-width:0.39663559;stroke-linecap:round;stroke-linejoin:round;stroke-miterlimit:4;stroke-dasharray:none;stroke-dashoffset:0;stroke-opacity:0.97635139"
       id="ellipse12266"
       cx="139.04277"
       cy="118.93542" />
    <ellipse
       ry="4.1593032"
       rx="4.1581793"
       inkscape:transform-center-y="-10.724852"
       inkscape:transform-center-x="9.5305947"
       cy="123.78851"
       cx="252.13518"
       id="ellipse12292"
       style="display:inline;opacity:1;fill:#3498db;fill-opacity:1;stroke:#3498db;stroke-width:0.39663559;stroke-linecap:round;stroke-linejoin:round;stroke-miterlimit:4;stroke-dasharray:none;stroke-dashoffset:0;stroke-opacity:0.97635139" />
    <ellipse
       ry="4.1593032"
       rx="4.1581793"
       inkscape:transform-center-y="-10.724835"
       inkscape:transform-center-x="9.5305988"
       cy="119.55022"
       cx="307.26297"
       id="ellipse12296"
       style="display:inline;opacity:1;fill:#3498db;fill-opacity:1;stroke:#3498db;stroke-width:0.39663559;stroke-linecap:round;stroke-linejoin:round;stroke-miterlimit:4;stroke-dasharray:none;stroke-dashoffset:0;stroke-opacity:0.97635139" />
    <path
       style="fill:none;stroke:#3498db;stroke-width:2.5;stroke-linecap:butt;stroke-linejoin:miter;stroke-miterlimit:4;stroke-dasharray:none;stroke-opacity:0.97647059"
       d="m 52.875,94.278107 10,29.000003 21,-10.5 v 0 0"
       id="path5311"
       inkscape:connector-curvature="0" />
    <path
       style="fill:none;stroke:#3498db;stroke-width:1.5;stroke-linecap:butt;stroke-linejoin:miter;stroke-miterlimit:4;stroke-dasharray:none;stroke-opacity:0.97647059"
       d="m 102.875,75.278107 -39.5,48.000003 v 0 l -1,2"
       id="path5313"
       inkscape:connector-curvature="0" />
    <path
       style="fill:none;stroke:#3498db;stroke-width:1.5;stroke-linecap:butt;stroke-linejoin:miter;stroke-miterlimit:4;stroke-dasharray:none;stroke-opacity:1"
       d="m 229.75,196.02811 -44,2.625 25.375,17.125 v 0"
       id="path5331"
       inkscape:connector-curvature="0" />
  </g>
  <g
     inkscape:groupmode="layer"
     id="layer2"
     inkscape:label="vertices 0"
     style="display:inline;opacity:1"
     transform="translate(-387.41463,-589.81931)"
     sodipodi:insensitive="true">
    <path
       style="display:inline;fill:none;fill-rule:evenodd;stroke:#3498db;stroke-width:3;stroke-linecap:butt;stroke-linejoin:miter;stroke-miterlimit:4;stroke-dasharray:none;stroke-opacity:1"
       d="m 515.87589,689.71367 24.57107,51.42411"
       id="path9320"
       inkscape:connector-curvature="0" />
    <path
       style="display:inline;fill:none;fill-rule:evenodd;stroke:#3498db;stroke-width:1.5;stroke-linecap:butt;stroke-linejoin:miter;stroke-miterlimit:4;stroke-dasharray:none;stroke-opacity:1"
       d="m 574.46842,741.13778 12.85257,40.08057"
       id="path9322"
       inkscape:connector-curvature="0" />
    <path
       style="display:inline;fill:none;fill-rule:evenodd;stroke:#3498db;stroke-width:1.5;stroke-linecap:butt;stroke-linejoin:miter;stroke-miterlimit:4;stroke-dasharray:none;stroke-opacity:1"
       d="m 565.39603,772.52162 0.37803,45.75234"
       id="path9324"
       inkscape:connector-curvature="0" />
    <path
       style="display:inline;fill:none;fill-rule:evenodd;stroke:#3498db;stroke-width:1.5;stroke-linecap:butt;stroke-linejoin:miter;stroke-miterlimit:4;stroke-dasharray:none;stroke-opacity:1"
       d="m 642.13335,732.06293 -12.09653,36.6775"
       id="path9326"
       inkscape:connector-curvature="0" />
    <path
       style="display:inline;fill:none;fill-rule:evenodd;stroke:#3498db;stroke-width:1.5;stroke-linecap:butt;stroke-linejoin:miter;stroke-miterlimit:4;stroke-dasharray:none;stroke-opacity:1"
       d="m 515.87589,690.09178 46.98395,22.0278 10.85256,28.26194"
       id="path12060"
       inkscape:connector-curvature="0"
       sodipodi:nodetypes="ccc" />
    <path
       style="display:inline;fill:none;fill-rule:evenodd;stroke:#3498db;stroke-width:1.58654225px;stroke-linecap:butt;stroke-linejoin:miter;stroke-opacity:1"
       d="m 450.10106,666.64844 54.05634,6.0499"
       id="path12214"
       inkscape:connector-curvature="0" />
    <path
       style="display:inline;fill:#729fcf;fill-rule:evenodd;stroke:#3498db;stroke-width:1.5;stroke-linecap:butt;stroke-linejoin:miter;stroke-miterlimit:4;stroke-dasharray:none;stroke-opacity:1"
       d="m 641.75532,730.92859 -2.26809,-64.28015"
       id="path12206"
       inkscape:connector-curvature="0" />
    <path
       style="display:inline;fill:none;fill-rule:evenodd;stroke:#3498db;stroke-width:1.58654225px;stroke-linecap:butt;stroke-linejoin:miter;stroke-opacity:1"
       d="m 629.28078,768.36231 -12.85255,-66.17074 v 36.6775 z"
       id="path12208"
       inkscape:connector-curvature="0" />
    <path
       style="display:inline;fill:none;fill-rule:evenodd;stroke:#3498db;stroke-width:1.58654225px;stroke-linecap:butt;stroke-linejoin:miter;stroke-opacity:1"
       d="m 597.52742,757.77501 31.75336,10.5873"
       id="path12210"
       inkscape:connector-curvature="0" />
    <path
       style="display:inline;fill:none;fill-rule:evenodd;stroke:#3498db;stroke-width:1.58654225px;stroke-linecap:butt;stroke-linejoin:miter;stroke-opacity:1"
       d="m 540.44696,693.87298 v 48.77728 l 24.57105,30.2495 23.81505,9.45293"
       id="path12212"
       inkscape:connector-curvature="0" />
    <path
       style="display:inline;fill:none;fill-rule:evenodd;stroke:#3498db;stroke-width:3;stroke-linecap:butt;stroke-linejoin:miter;stroke-miterlimit:4;stroke-dasharray:none;stroke-opacity:1"
       d="m 564.64001,819.03019 44.98392,-0.37812"
       id="path12216"
       inkscape:connector-curvature="0" />
    <ellipse
       ry="4.1593032"
       rx="4.1581793"
       style="display:inline;opacity:1;fill:#3498db;fill-opacity:1;stroke:#3498db;stroke-width:0.39663559;stroke-linecap:round;stroke-linejoin:round;stroke-miterlimit:4;stroke-dasharray:none;stroke-dashoffset:0;stroke-opacity:0.97635139"
       id="ellipse12252"
       cx="587.39447"
       cy="781.79773" />
    <ellipse
       ry="4.1593032"
       rx="4.1581793"
       cy="818.74042"
       cx="609.15759"
       id="ellipse12254"
       style="display:inline;opacity:1;fill:#3498db;fill-opacity:1;stroke:#3498db;stroke-width:0.39663559;stroke-linecap:round;stroke-linejoin:round;stroke-miterlimit:4;stroke-dasharray:none;stroke-dashoffset:0;stroke-opacity:0.97635139" />
    <ellipse
       ry="4.1593032"
       rx="4.1581793"
       style="display:inline;opacity:1;fill:#3498db;fill-opacity:1;stroke:#3498db;stroke-width:0.39663559;stroke-linecap:round;stroke-linejoin:round;stroke-miterlimit:4;stroke-dasharray:none;stroke-dashoffset:0;stroke-opacity:0.97635139"
       id="ellipse12256"
       cx="565.97528"
       cy="818.74042" />
    <ellipse
       ry="4.1593032"
       rx="4.1581793"
       style="display:inline;opacity:1;fill:#3498db;fill-opacity:1;stroke:#3498db;stroke-width:0.39663559;stroke-linecap:round;stroke-linejoin:round;stroke-miterlimit:4;stroke-dasharray:none;stroke-dashoffset:0;stroke-opacity:0.97635139"
       id="ellipse12262"
       cx="490.92691"
       cy="689.33545" />
    <ellipse
       ry="4.1593032"
       rx="4.1581793"
       cy="690.09174"
       cx="516.25397"
       id="ellipse12268"
       style="display:inline;opacity:1;fill:#3498db;fill-opacity:1;stroke:#3498db;stroke-width:0.39663559;stroke-linecap:round;stroke-linejoin:round;stroke-miterlimit:4;stroke-dasharray:none;stroke-dashoffset:0;stroke-opacity:0.97635139" />
    <ellipse
       ry="4.1593032"
       rx="4.1581793"
       style="display:inline;opacity:1;fill:#3498db;fill-opacity:1;stroke:#3498db;stroke-width:0.39663559;stroke-linecap:round;stroke-linejoin:round;stroke-miterlimit:4;stroke-dasharray:none;stroke-dashoffset:0;stroke-opacity:0.97635139"
       id="ellipse12270"
       cx="561.66821"
       cy="709.15314" />
    <ellipse
       ry="4.1593032"
       rx="4.1581793"
       cy="671.6922"
       cx="502.64844"
       id="ellipse12272"
       style="display:inline;opacity:1;fill:#3498db;fill-opacity:1;stroke:#3498db;stroke-width:0.39663559;stroke-linecap:round;stroke-linejoin:round;stroke-miterlimit:4;stroke-dasharray:none;stroke-dashoffset:0;stroke-opacity:0.97635139" />
    <ellipse
       ry="4.1593032"
       rx="4.1581793"
       style="display:inline;opacity:1;fill:#3498db;fill-opacity:1;stroke:#3498db;stroke-width:0.39663559;stroke-linecap:round;stroke-linejoin:round;stroke-miterlimit:4;stroke-dasharray:none;stroke-dashoffset:0;stroke-opacity:0.97635139"
       id="ellipse12274"
       cx="540.81299"
       cy="693.37305" />
    <ellipse
       ry="4.1593032"
       rx="4.1581793"
       cy="741.13794"
       cx="540.82501"
       id="ellipse12276"
       style="display:inline;opacity:1;fill:#3498db;fill-opacity:1;stroke:#3498db;stroke-width:0.39663559;stroke-linecap:round;stroke-linejoin:round;stroke-miterlimit:4;stroke-dasharray:none;stroke-dashoffset:0;stroke-opacity:0.97635139" />
    <ellipse
       ry="4.1593032"
       rx="4.1581793"
       style="display:inline;opacity:1;fill:#3498db;fill-opacity:1;stroke:#3498db;stroke-width:0.39663559;stroke-linecap:round;stroke-linejoin:round;stroke-miterlimit:4;stroke-dasharray:none;stroke-dashoffset:0;stroke-opacity:0.97635139"
       id="ellipse12278"
       cx="573.51123"
       cy="741.22632" />
    <ellipse
       ry="4.1593032"
       rx="4.1581793"
       cy="772.52173"
       cx="565.39612"
       id="ellipse12280"
       style="display:inline;opacity:1;fill:#3498db;fill-opacity:1;stroke:#3498db;stroke-width:0.39663559;stroke-linecap:round;stroke-linejoin:round;stroke-miterlimit:4;stroke-dasharray:none;stroke-dashoffset:0;stroke-opacity:0.97635139" />
    <ellipse
       ry="4.1593032"
       rx="4.1581793"
       style="display:inline;opacity:1;fill:#3498db;fill-opacity:1;stroke:#3498db;stroke-width:0.39663559;stroke-linecap:round;stroke-linejoin:round;stroke-miterlimit:4;stroke-dasharray:none;stroke-dashoffset:0;stroke-opacity:0.97635139"
       id="ellipse12282"
       cx="606.38373"
       cy="789.62549"
       inkscape:transform-center-x="9.5306006"
       inkscape:transform-center-y="-10.72485" />
    <ellipse
       ry="4.1593032"
       rx="4.1581793"
       inkscape:transform-center-y="-10.724822"
       inkscape:transform-center-x="9.5305654"
       cy="730.17249"
       cx="641.75543"
       id="ellipse12284"
       style="display:inline;opacity:1;fill:#3498db;fill-opacity:1;stroke:#3498db;stroke-width:0.39663559;stroke-linecap:round;stroke-linejoin:round;stroke-miterlimit:4;stroke-dasharray:none;stroke-dashoffset:0;stroke-opacity:0.97635139" />
    <ellipse
       ry="4.1593032"
       rx="4.1581793"
       style="display:inline;opacity:1;fill:#3498db;fill-opacity:1;stroke:#3498db;stroke-width:0.39663559;stroke-linecap:round;stroke-linejoin:round;stroke-miterlimit:4;stroke-dasharray:none;stroke-dashoffset:0;stroke-opacity:0.97635139"
       id="ellipse12286"
       cx="616.8064"
       cy="702.94794"
       inkscape:transform-center-x="9.5305633"
       inkscape:transform-center-y="-10.724851" />
    <ellipse
       ry="4.1593032"
       rx="4.1581793"
       inkscape:transform-center-y="-10.724843"
       inkscape:transform-center-x="9.5305819"
       cy="738.49109"
       cx="617.18439"
       id="ellipse12288"
       style="display:inline;opacity:1;fill:#3498db;fill-opacity:1;stroke:#3498db;stroke-width:0.39663559;stroke-linecap:round;stroke-linejoin:round;stroke-miterlimit:4;stroke-dasharray:none;stroke-dashoffset:0;stroke-opacity:0.97635139" />
    <ellipse
       ry="4.1593032"
       rx="4.1581793"
       style="display:inline;opacity:1;fill:#3498db;fill-opacity:1;stroke:#3498db;stroke-width:0.39663559;stroke-linecap:round;stroke-linejoin:round;stroke-miterlimit:4;stroke-dasharray:none;stroke-dashoffset:0;stroke-opacity:0.97635139"
       id="ellipse12290"
       cx="629.03088"
       cy="768.17493"
       inkscape:transform-center-x="9.5305949"
       inkscape:transform-center-y="-10.724827" />
    <ellipse
       ry="4.1593032"
       rx="4.1581793"
       style="display:inline;opacity:1;fill:#3498db;fill-opacity:1;stroke:#3498db;stroke-width:0.39663559;stroke-linecap:round;stroke-linejoin:round;stroke-miterlimit:4;stroke-dasharray:none;stroke-dashoffset:0;stroke-opacity:0.97635139"
       id="ellipse12294"
       cx="662.54626"
       cy="688.95752"
       inkscape:transform-center-x="9.5306048"
       inkscape:transform-center-y="-10.724823" />
    <ellipse
       ry="4.1593032"
       rx="4.1581793"
       style="display:inline;opacity:1;fill:#3498db;fill-opacity:1;stroke:#3498db;stroke-width:0.39663559;stroke-linecap:round;stroke-linejoin:round;stroke-miterlimit:4;stroke-dasharray:none;stroke-dashoffset:0;stroke-opacity:0.97635139"
       id="ellipse12298"
       cx="719.24872"
       cy="675.72339"
       inkscape:transform-center-x="9.5305824"
       inkscape:transform-center-y="-10.724798" />
    <ellipse
       ry="4.1593032"
       rx="4.1581793"
       style="display:inline;opacity:1;fill:#3498db;fill-opacity:1;stroke:#3498db;stroke-width:0.39663559;stroke-linecap:round;stroke-linejoin:round;stroke-miterlimit:4;stroke-dasharray:none;stroke-dashoffset:0;stroke-opacity:0.97635139"
       id="ellipse12302"
       cx="617.18439"
       cy="738.49109"
       inkscape:transform-center-x="9.5305819"
       inkscape:transform-center-y="-10.724843" />
    <ellipse
       ry="4.1593032"
       rx="4.1581793"
       inkscape:transform-center-y="-10.724843"
       inkscape:transform-center-x="9.5305819"
       cy="738.49109"
       cx="617.24689"
       id="ellipse12304"
       style="display:inline;opacity:1;fill:#3498db;fill-opacity:1;stroke:#3498db;stroke-width:0.39663559;stroke-linecap:round;stroke-linejoin:round;stroke-miterlimit:4;stroke-dasharray:none;stroke-dashoffset:0;stroke-opacity:0.97635139" />
    <ellipse
       ry="4.1593032"
       rx="4.1581793"
       style="display:inline;opacity:1;fill:#3498db;fill-opacity:1;stroke:#3498db;stroke-width:0.39663559;stroke-linecap:round;stroke-linejoin:round;stroke-miterlimit:4;stroke-dasharray:none;stroke-dashoffset:0;stroke-opacity:0.97635139"
       id="ellipse12306"
       cx="598.0033"
       cy="758.21582"
       inkscape:transform-center-x="9.5306167"
       inkscape:transform-center-y="-10.724797" />
    <ellipse
       ry="4.1593032"
       rx="4.1581793"
       style="display:inline;opacity:1;fill:#3498db;fill-opacity:1;stroke:#3498db;stroke-width:0.39663559;stroke-linecap:round;stroke-linejoin:round;stroke-miterlimit:4;stroke-dasharray:none;stroke-dashoffset:0;stroke-opacity:0.97635139"
       id="ellipse12258"
       cx="440.27264"
       cy="636.84271" />
    <ellipse
       ry="4.1593032"
       rx="4.1581793"
       inkscape:transform-center-y="-10.724829"
       inkscape:transform-center-x="9.5306165"
       cy="636.8053"
       cx="734.7594"
       id="ellipse12300"
       style="display:inline;opacity:1;fill:#3498db;fill-opacity:1;stroke:#3498db;stroke-width:0.39663559;stroke-linecap:round;stroke-linejoin:round;stroke-miterlimit:4;stroke-dasharray:none;stroke-dashoffset:0;stroke-opacity:0.97635139" />
    <ellipse
       ry="4.1593032"
       rx="4.1581793"
       style="display:inline;opacity:1;fill:#3498db;fill-opacity:1;stroke:#3498db;stroke-width:0.39663559;stroke-linecap:round;stroke-linejoin:round;stroke-miterlimit:4;stroke-dasharray:none;stroke-dashoffset:0;stroke-opacity:0.97635139"
       id="ellipse12258-3"
       cx="490.28964"
       cy="617.81934" />
    <ellipse
       ry="4.1593032"
       rx="4.1581793"
       style="display:inline;opacity:1;fill:#3498db;fill-opacity:1;stroke:#3498db;stroke-width:0.39663559;stroke-linecap:round;stroke-linejoin:round;stroke-miterlimit:4;stroke-dasharray:none;stroke-dashoffset:0;stroke-opacity:0.97635139"
       id="ellipse12258-3-0"
       cx="689.78961"
       cy="617.81934" />
    <path
       style="display:inline;fill:none;fill-opacity:1;stroke:#3498db;stroke-width:2;stroke-linecap:butt;stroke-linejoin:miter;stroke-miterlimit:4;stroke-dasharray:none;stroke-opacity:0.97647059"
       d="m 439.28963,637.81931 50.5,-19.5 -14.05,28.1 0.925,-1.725 -5.875,11.75 -0.25,-0.75"
       id="path5161"
       inkscape:connector-curvature="0"
       sodipodi:nodetypes="cccccc" />
    <path
       style="display:inline;fill:none;stroke:#3498db;stroke-width:2.5;stroke-linecap:butt;stroke-linejoin:miter;stroke-miterlimit:4;stroke-dasharray:none;stroke-opacity:0.97647059"
       d="m 734.78963,636.81931 -40.285,-17.00922 -4.715,-1.99078 29,57.5 v -0.5 0 h 0.5 v 0"
       id="path5163"
       inkscape:connector-curvature="0"
       sodipodi:nodetypes="cccccccc" />
  </g>
  <g
     inkscape:groupmode="layer"
     id="layer6"
     inkscape:label="no:des"
     style="display:inline"
     sodipodi:insensitive="true">
    <ellipse
       transform="translate(-387.41463,-589.81931)"
       ry="4.1593032"
       rx="4.1581793"
       style="display:inline;opacity:1;fill:#3498db;fill-opacity:1;stroke:#3498db;stroke-width:0.39663559;stroke-linecap:round;stroke-linejoin:round;stroke-miterlimit:4;stroke-dasharray:none;stroke-dashoffset:0;stroke-opacity:0.97635139"
       id="ellipse12282-8-9-0"
       cx="587.3924"
       cy="855.64899"
       inkscape:transform-center-x="9.5306006"
       inkscape:transform-center-y="-10.72485" />
    <ellipse
       transform="translate(-387.41463,-589.81931)"
       ry="4.1593032"
       rx="4.1581793"
       style="display:inline;opacity:1;fill:#3498db;fill-opacity:1;stroke:#3498db;stroke-width:0.39663559;stroke-linecap:round;stroke-linejoin:round;stroke-miterlimit:4;stroke-dasharray:none;stroke-dashoffset:0;stroke-opacity:0.97635139"
       id="ellipse12282-8-9"
       cx="587.3924"
       cy="839.31183"
       inkscape:transform-center-x="9.5306006"
       inkscape:transform-center-y="-10.72485" />
  </g>
</svg>
